<?xml version="1.0" standalone="no"?>
<svg viewBox="0 0 200 200" xmlns="http://www.w3.org/2000/svg">
  <path fill="#FFD6E8" d="M45.2,-71.3C57.5,-62.3,65.9,-48.1,74,-33C82.1,-17.9,89.9,-1.9,87.7,12.5C85.4,26.9,73.1,39.8,61.4,53C49.7,66.3,38.6,79.9,24.7,83.6C10.9,87.4,-5.6,81.3,-22.4,76.3C-39.1,71.3,-56.2,67.4,-67.1,57C-78.1,46.5,-83,29.6,-83.6,13.2C-84.2,-3.3,-80.5,-19.2,-73.5,-33.2C-66.5,-47.1,-56.1,-59.2,-43.3,-67.9C-30.5,-76.7,-15.3,-82.1,0.6,-83C16.4,-83.9,32.8,-80.2,45.2,-71.3Z" transform="translate(100 100)" />
</svg>
